<svg id="visual" viewBox="0 0 900 600" width="900" height="600" xmlns="http://www.w3.org/2000/svg" xmlns:xlink="http://www.w3.org/1999/xlink" version="1.1"><path d="M0 85L13.7 83C27.3 81 54.7 77 82 71C109.3 65 136.7 57 163.8 62C191 67 218 85 245.2 87C272.3 89 299.7 75 327 70C354.3 65 381.7 69 409 73C436.3 77 463.7 81 491 77C518.3 73 545.7 61 573 62C600.3 63 627.7 77 654.8 83C682 89 709 87 736.2 81C763.3 75 790.7 65 818 64C845.3 63 872.7 71 886.3 75L900 79L900 0L886.3 0C872.7 0 845.3 0 818 0C790.7 0 763.3 0 736.2 0C709 0 682 0 654.8 0C627.7 0 600.3 0 573 0C545.7 0 518.3 0 491 0C463.7 0 436.3 0 409 0C381.7 0 354.3 0 327 0C299.7 0 272.3 0 245.2 0C218 0 191 0 163.8 0C136.7 0 109.3 0 82 0C54.7 0 27.3 0 13.7 0L0 0Z" fill="#6198ff"></path><path d="M0 199L13.7 198C27.3 197 54.7 195 82 185C109.3 175 136.7 157 163.8 158C191 159 218 179 245.2 177C272.3 175 299.7 151 327 143C354.3 135 381.7 143 409 146C436.3 149 463.7 147 491 140C518.3 133 545.7 121 573 124C600.3 127 627.7 145 654.8 154C682 163 709 163 736.2 152C763.3 141 790.7 119 818 115C845.3 111 872.7 125 886.3 132L900 139L900 77L886.3 73C872.7 69 845.3 61 818 62C790.7 63 763.3 73 736.2 79C709 85 682 87 654.8 81C627.7 75 600.3 61 573 60C545.7 59 518.3 71 491 75C463.7 79 436.3 75 409 71C381.7 67 354.3 63 327 68C299.7 73 272.3 87 245.2 85C218 83 191 65 163.8 60C136.7 55 109.3 63 82 69C54.7 75 27.3 79 13.7 81L0 83Z" fill="#3c80ff"></path><path d="M0 265L13.7 261C27.3 257 54.7 249 82 241C109.3 233 136.7 225 163.8 239C191 253 218 289 245.2 283C272.3 277 299.7 229 327 225C354.3 221 381.7 261 409 268C436.3 275 463.7 249 491 229C518.3 209 545.7 195 573 210C600.3 225 627.7 269 654.8 275C682 281 709 249 736.2 241C763.3 233 790.7 249 818 251C845.3 253 872.7 241 886.3 235L900 229L900 137L886.3 130C872.7 123 845.3 109 818 113C790.7 117 763.3 139 736.2 150C709 161 682 161 654.8 152C627.7 143 600.3 125 573 122C545.7 119 518.3 131 491 138C463.7 145 436.3 147 409 144C381.7 141 354.3 133 327 141C299.7 149 272.3 173 245.2 175C218 177 191 157 163.8 156C136.7 155 109.3 173 82 183C54.7 193 27.3 195 13.7 196L0 197Z" fill="#0066ff"></path><path d="M0 433L13.7 436C27.3 439 54.7 445 82 435C109.3 425 136.7 399 163.8 397C191 395 218 417 245.2 412C272.3 407 299.7 375 327 387C354.3 399 381.7 455 409 474C436.3 493 463.7 475 491 465C518.3 455 545.7 453 573 456C600.3 459 627.7 467 654.8 473C682 479 709 483 736.2 479C763.3 475 790.7 463 818 456C845.3 449 872.7 447 886.3 446L900 445L900 227L886.3 233C872.7 239 845.3 251 818 249C790.7 247 763.3 231 736.2 239C709 247 682 279 654.8 273C627.7 267 600.3 223 573 208C545.7 193 518.3 207 491 227C463.7 247 436.3 273 409 266C381.7 259 354.3 219 327 223C299.7 227 272.3 275 245.2 281C218 287 191 251 163.8 237C136.7 223 109.3 231 82 239C54.7 247 27.3 255 13.7 259L0 263Z" fill="#0059dd"></path><path d="M0 601L13.7 601C27.3 601 54.7 601 82 601C109.3 601 136.7 601 163.8 601C191 601 218 601 245.2 601C272.3 601 299.7 601 327 601C354.3 601 381.7 601 409 601C436.3 601 463.7 601 491 601C518.3 601 545.7 601 573 601C600.3 601 627.7 601 654.8 601C682 601 709 601 736.2 601C763.3 601 790.7 601 818 601C845.3 601 872.7 601 886.3 601L900 601L900 443L886.3 444C872.7 445 845.3 447 818 454C790.7 461 763.3 473 736.2 477C709 481 682 477 654.8 471C627.7 465 600.3 457 573 454C545.7 451 518.3 453 491 463C463.7 473 436.3 491 409 472C381.7 453 354.3 397 327 385C299.7 373 272.3 405 245.2 410C218 415 191 393 163.8 395C136.7 397 109.3 423 82 433C54.7 443 27.3 437 13.7 434L0 431Z" fill="#004cbb"></path></svg>