<svg id="visual" viewBox="0 0 900 600" width="900" height="600" xmlns="http://www.w3.org/2000/svg" xmlns:xlink="http://www.w3.org/1999/xlink" version="1.1"><rect x="0" y="0" width="900" height="600" fill="#fff"></rect><defs><linearGradient id="grad1_0" x1="33.3%" y1="0%" x2="100%" y2="100%"><stop offset="20%" stop-color="#ffffff" stop-opacity="1"></stop><stop offset="80%" stop-color="#ffffff" stop-opacity="1"></stop></linearGradient></defs><defs><linearGradient id="grad2_0" x1="0%" y1="0%" x2="66.7%" y2="100%"><stop offset="20%" stop-color="#ffffff" stop-opacity="1"></stop><stop offset="80%" stop-color="#ffffff" stop-opacity="1"></stop></linearGradient></defs><g transform="translate(900, 0)"><path d="M0 351.5C-42.5 356.1 -85 360.6 -108.6 334.3C-132.3 308.1 -137 251.1 -164.6 226.5C-192.1 201.9 -242.4 209.7 -263.7 191.6C-285.1 173.5 -277.4 129.6 -287.2 93.3C-297 57.1 -324.3 28.5 -351.5 0L0 0Z" fill="#f2f3f5"></path></g><g transform="translate(0, 600)"><path d="M0 -351.5C22.1 -302.5 44.2 -253.4 78.8 -242.5C113.4 -231.6 160.3 -258.9 179.3 -246.8C198.2 -234.6 189.1 -183 216 -156.9C242.9 -130.9 305.8 -130.5 334.3 -108.6C362.9 -86.7 357.2 -43.4 351.5 0L0 0Z" fill="#f2f3f5"></path></g></svg>