<svg id="visual" viewBox="0 0 900 600" width="900" height="600" xmlns="http://www.w3.org/2000/svg" xmlns:xlink="http://www.w3.org/1999/xlink" version="1.1"><rect x="0" y="0" width="900" height="600" fill="#fff"></rect><path d="M0 149L21.5 146.2C43 143.3 86 137.7 128.8 142.5C171.7 147.3 214.3 162.7 257.2 161.8C300 161 343 144 385.8 128.3C428.7 112.7 471.3 98.3 514.2 105.8C557 113.3 600 142.7 642.8 153.5C685.7 164.3 728.3 156.7 771.2 145.3C814 134 857 119 878.5 111.5L900 104L900 0L878.5 0C857 0 814 0 771.2 0C728.3 0 685.7 0 642.8 0C600 0 557 0 514.2 0C471.3 0 428.7 0 385.8 0C343 0 300 0 257.2 0C214.3 0 171.7 0 128.8 0C86 0 43 0 21.5 0L0 0Z" fill="#f2f3f5" stroke-linecap="round" stroke-linejoin="miter"></path></svg>