<svg id="visual" viewBox="0 0 900 600" width="900" height="600" xmlns="http://www.w3.org/2000/svg" xmlns:xlink="http://www.w3.org/1999/xlink" version="1.1"><rect x="0" y="0" width="900" height="600" fill="#fff"></rect><path d="M0 300L21.5 294C43 288 86 276 128.8 285.7C171.7 295.3 214.3 326.7 257.2 325.2C300 323.7 343 289.3 385.8 257.7C428.7 226 471.3 197 514.2 212.2C557 227.3 600 286.7 642.8 308.3C685.7 330 728.3 314 771.2 291.2C814 268.3 857 238.7 878.5 223.8L900 209L900 0L878.5 0C857 0 814 0 771.2 0C728.3 0 685.7 0 642.8 0C600 0 557 0 514.2 0C471.3 0 428.7 0 385.8 0C343 0 300 0 257.2 0C214.3 0 171.7 0 128.8 0C86 0 43 0 21.5 0L0 0Z" fill="#ff4040" stroke-linecap="round" stroke-linejoin="miter"></path></svg>