<svg id="visual" viewBox="0 0 900 600" width="900" height="600" xmlns="http://www.w3.org/2000/svg" xmlns:xlink="http://www.w3.org/1999/xlink" version="1.1"><rect x="0" y="0" width="900" height="600" fill="#fff"></rect><path d="M0 478L21.5 483C43 488 86 498 128.8 498.8C171.7 499.7 214.3 491.3 257.2 483.7C300 476 343 469 385.8 473.3C428.7 477.7 471.3 493.3 514.2 503.3C557 513.3 600 517.7 642.8 506.7C685.7 495.7 728.3 469.3 771.2 464.2C814 459 857 475 878.5 483L900 491L900 601L878.5 601C857 601 814 601 771.2 601C728.3 601 685.7 601 642.8 601C600 601 557 601 514.2 601C471.3 601 428.7 601 385.8 601C343 601 300 601 257.2 601C214.3 601 171.7 601 128.8 601C86 601 43 601 21.5 601L0 601Z" fill="#f2f3f5" stroke-linecap="round" stroke-linejoin="miter"></path></svg>